<svg id="visual" viewBox="0 0 900 600" width="900" height="600" xmlns="http://www.w3.org/2000/svg" xmlns:xlink="http://www.w3.org/1999/xlink" version="1.1"><path d="M0 139L47 139L47 181L95 181L95 133L142 133L142 175L189 175L189 247L237 247L237 181L284 181L284 109L332 109L332 139L379 139L379 169L426 169L426 151L474 151L474 217L521 217L521 175L568 175L568 217L616 217L616 115L663 115L663 169L711 169L711 127L758 127L758 133L805 133L805 157L853 157L853 115L900 115L900 127L900 0L900 0L853 0L853 0L805 0L805 0L758 0L758 0L711 0L711 0L663 0L663 0L616 0L616 0L568 0L568 0L521 0L521 0L474 0L474 0L426 0L426 0L379 0L379 0L332 0L332 0L284 0L284 0L237 0L237 0L189 0L189 0L142 0L142 0L95 0L95 0L47 0L47 0L0 0Z" fill="#fa7268"></path><path d="M0 217L47 217L47 265L95 265L95 211L142 211L142 259L189 259L189 307L237 307L237 265L284 265L284 163L332 163L332 187L379 187L379 211L426 211L426 229L474 229L474 259L521 259L521 235L568 235L568 289L616 289L616 199L663 199L663 259L711 259L711 199L758 199L758 229L805 229L805 229L853 229L853 181L900 181L900 205L900 125L900 113L853 113L853 155L805 155L805 131L758 131L758 125L711 125L711 167L663 167L663 113L616 113L616 215L568 215L568 173L521 173L521 215L474 215L474 149L426 149L426 167L379 167L379 137L332 137L332 107L284 107L284 179L237 179L237 245L189 245L189 173L142 173L142 131L95 131L95 179L47 179L47 137L0 137Z" fill="#ea5e66"></path><path d="M0 283L47 283L47 349L95 349L95 301L142 301L142 325L189 325L189 367L237 367L237 331L284 331L284 265L332 265L332 307L379 307L379 271L426 271L426 331L474 331L474 379L521 379L521 325L568 325L568 391L616 391L616 259L663 259L663 349L711 349L711 259L758 259L758 295L805 295L805 331L853 331L853 277L900 277L900 277L900 203L900 179L853 179L853 227L805 227L805 227L758 227L758 197L711 197L711 257L663 257L663 197L616 197L616 287L568 287L568 233L521 233L521 257L474 257L474 227L426 227L426 209L379 209L379 185L332 185L332 161L284 161L284 263L237 263L237 305L189 305L189 257L142 257L142 209L95 209L95 263L47 263L47 215L0 215Z" fill="#d84a64"></path><path d="M0 493L47 493L47 493L95 493L95 481L142 481L142 529L189 529L189 505L237 505L237 487L284 487L284 463L332 463L332 487L379 487L379 439L426 439L426 535L474 535L474 481L521 481L521 523L568 523L568 505L616 505L616 505L663 505L663 481L711 481L711 475L758 475L758 463L805 463L805 463L853 463L853 475L900 475L900 457L900 275L900 275L853 275L853 329L805 329L805 293L758 293L758 257L711 257L711 347L663 347L663 257L616 257L616 389L568 389L568 323L521 323L521 377L474 377L474 329L426 329L426 269L379 269L379 305L332 305L332 263L284 263L284 329L237 329L237 365L189 365L189 323L142 323L142 299L95 299L95 347L47 347L47 281L0 281Z" fill="#c53762"></path><path d="M0 601L47 601L47 601L95 601L95 601L142 601L142 601L189 601L189 601L237 601L237 601L284 601L284 601L332 601L332 601L379 601L379 601L426 601L426 601L474 601L474 601L521 601L521 601L568 601L568 601L616 601L616 601L663 601L663 601L711 601L711 601L758 601L758 601L805 601L805 601L853 601L853 601L900 601L900 601L900 455L900 473L853 473L853 461L805 461L805 461L758 461L758 473L711 473L711 479L663 479L663 503L616 503L616 503L568 503L568 521L521 521L521 479L474 479L474 533L426 533L426 437L379 437L379 485L332 485L332 461L284 461L284 485L237 485L237 503L189 503L189 527L142 527L142 479L95 479L95 491L47 491L47 491L0 491Z" fill="#b0235f"></path></svg>